{"glyphs":{":":{"x_min":0,"x_max":313,"ha":313,"o":"m 157 406 q 204 406 238 380 q 272 354 272 318 q 272 279 241 254 q 210 230 160 230 q 110 230 75 256 q 41 282 41 319 q 41 354 75 380 q 109 406 157 406 z m 157 163 q 204 163 238 137 q 272 110 272 75 q 272 36 241 11 q 209 -13 160 -13 q 109 -13 75 13 q 41 39 41 77 q 41 113 75 138 q 109 163 157 163 z"},"$":{"x_min":0,"x_max":646,"ha":646,"o":"m 370 453 q 476 396 499 381 q 522 366 548 337 q 573 309 586 275 q 599 242 599 205 q 599 121 536 61 q 474 2 364 -9 l 364 -80 l 340 -80 l 340 -9 l 312 -9 l 312 -80 l 287 -80 l 287 -9 l 269 -9 q 170 -9 107 25 q 43 59 43 115 q 43 154 70 180 q 98 206 138 206 q 177 206 204 179 q 232 152 232 113 q 232 51 164 30 l 164 28 q 217 16 253 16 q 272 16 287 17 l 287 198 q 194 249 169 265 q 145 282 121 310 q 97 339 85 371 q 73 404 73 440 q 73 521 130 578 q 188 635 293 656 l 293 731 l 318 731 l 318 660 q 334 663 346 664 l 346 731 l 370 731 l 370 664 q 380 665 392 665 q 481 665 537 630 q 593 595 593 542 q 593 502 567 476 q 541 450 500 450 q 459 450 433 476 q 406 501 406 541 q 406 622 493 625 l 493 627 q 452 641 403 641 q 384 641 370 639 z m 346 465 l 346 636 q 329 632 318 626 l 318 482 q 339 470 346 465 z m 293 496 l 293 617 q 252 591 252 557 q 252 523 293 496 z m 340 30 l 340 172 q 332 178 312 188 l 312 20 q 324 22 340 30 z m 364 40 q 405 65 405 99 q 405 120 395 132 q 385 145 364 161 z"},"?":{"x_min":0,"x_max":458,"ha":458,"o":"m 68 589 q 83 597 107 597 q 145 597 169 573 q 193 548 193 510 q 193 473 169 451 q 145 428 106 428 q 66 428 41 454 q 16 479 16 520 q 16 579 67 624 q 118 670 184 670 q 285 670 360 595 q 436 521 436 422 q 436 328 371 264 q 305 200 187 193 l 162 159 l 138 351 q 217 354 259 390 q 302 426 302 484 q 302 547 260 595 q 219 643 166 643 q 108 643 66 591 z m 174 145 q 218 145 249 122 q 279 100 279 67 q 279 39 248 18 q 217 -2 174 -2 q 131 -2 100 20 q 70 42 70 72 q 70 103 100 124 q 130 145 174 145 z"},"<":{"x_min":0,"x_max":667,"ha":667,"o":"m 608 50 l 59 278 l 59 387 l 608 615 l 608 485 l 225 333 l 608 181 z"},"'":{"x_min":0,"x_max":258,"ha":258,"o":"m 116 381 q 65 546 61 571 q 56 596 56 608 q 56 638 77 657 q 99 676 132 676 q 164 676 183 656 q 202 637 202 603 q 202 586 192 552 l 142 381 z"},"=":{"x_min":0,"x_max":667,"ha":667,"o":"m 608 390 l 59 390 l 59 511 l 608 511 z m 608 155 l 59 155 l 59 276 l 608 276 z"},"a":{"x_min":0,"x_max":594,"ha":594,"o":"m 591 78 q 546 -13 428 -13 q 364 -13 320 30 q 251 -13 183 -13 q 112 -13 66 20 q 20 54 20 104 q 20 161 68 194 q 117 226 201 226 q 266 226 315 210 l 315 307 q 315 347 305 361 q 295 375 275 383 q 255 390 231 390 q 200 390 185 383 q 238 367 238 313 q 238 277 216 255 q 195 234 159 234 q 122 234 98 256 q 75 278 75 313 q 75 361 122 387 q 168 413 254 413 q 345 413 403 400 q 461 388 488 368 q 516 349 526 328 q 536 307 536 262 l 536 78 q 536 63 537 58 q 539 53 544 53 q 553 53 573 87 z m 315 48 l 315 188 q 284 200 266 200 q 247 200 238 190 q 230 181 230 158 l 230 68 q 230 27 260 27 q 277 27 315 48 z"},"L":{"x_min":0,"x_max":707,"ha":707,"o":"m 677 0 l 30 0 l 30 23 l 108 23 l 108 632 l 30 632 l 30 655 l 478 655 l 478 632 l 393 632 l 393 23 q 497 34 573 97 q 648 160 654 245 l 677 245 z"},"3":{"x_min":0,"x_max":656,"ha":656,"o":"m 424 365 q 520 342 559 292 q 599 242 599 181 q 599 124 560 72 q 521 21 446 2 q 372 -16 298 -16 q 173 -16 115 30 q 57 76 57 133 q 57 177 86 206 q 115 236 158 236 q 198 236 225 209 q 252 182 252 141 q 252 102 228 77 q 204 52 167 52 q 139 52 111 73 l 109 71 q 158 12 261 12 q 293 12 311 23 q 329 33 335 48 q 341 62 341 96 l 341 299 q 341 331 330 342 q 319 353 285 353 l 234 353 l 234 380 l 296 380 q 321 380 331 391 q 341 402 341 430 l 341 569 q 341 612 325 629 q 309 645 265 645 q 216 645 176 629 l 176 627 l 181 627 q 221 627 245 603 q 269 579 269 539 q 269 500 242 475 q 215 449 174 449 q 134 449 109 474 q 83 500 83 539 q 83 603 145 637 q 206 671 320 671 q 441 671 508 628 q 575 584 575 507 q 575 454 544 417 q 513 380 424 367 z"},";":{"x_min":0,"x_max":313,"ha":313,"o":"m 153 400 q 199 400 233 374 q 267 347 267 312 q 267 272 236 248 q 206 223 156 223 q 106 223 72 250 q 37 276 37 313 q 37 349 71 375 q 105 400 153 400 z m 236 23 q 204 -9 151 -9 q 102 -9 70 16 q 38 41 38 76 q 38 113 71 137 q 104 162 155 162 q 208 162 242 133 q 276 103 276 58 q 276 2 239 -46 q 203 -94 84 -94 l 71 -94 l 71 -71 q 168 -71 201 -44 q 234 -17 238 21 z"},"J":{"x_min":0,"x_max":646,"ha":646,"o":"m 623 632 l 546 632 l 546 193 q 546 136 534 104 q 523 72 487 43 q 451 14 386 -5 q 320 -23 243 -23 q 125 -23 70 25 q 16 74 16 138 q 16 183 46 212 q 77 241 123 241 q 163 241 188 215 q 214 188 214 147 q 214 104 185 76 q 156 47 112 47 q 97 47 80 51 l 78 49 q 116 11 168 11 q 266 11 266 138 l 262 541 l 262 632 l 171 632 l 171 655 l 623 655 z"},"V":{"x_min":0,"x_max":769,"ha":769,"o":"m 765 632 q 702 607 640 466 l 437 0 l 280 0 l 58 632 l 6 632 l 6 655 l 418 655 l 418 632 l 355 632 l 501 226 l 599 459 q 608 481 614 506 q 619 530 619 545 q 619 632 534 632 l 534 655 l 765 655 z"},"\"":{"x_min":0,"x_max":461,"ha":461,"o":"m 319 381 q 267 551 263 573 q 259 594 259 608 q 259 638 280 657 q 302 676 335 676 q 367 676 386 656 q 405 637 405 603 q 405 582 394 545 l 345 381 z m 116 381 q 65 546 61 571 q 56 596 56 608 q 56 638 77 657 q 99 676 132 676 q 164 676 183 656 q 202 637 202 603 q 202 586 192 552 l 142 381 z"},"7":{"x_min":0,"x_max":656,"ha":656,"o":"m 629 648 q 567 597 517 480 q 468 363 468 206 l 468 193 q 468 130 457 85 q 447 40 413 12 q 380 -16 325 -16 q 270 -16 235 18 q 199 52 199 105 q 199 171 236 239 q 273 306 375 403 q 449 472 476 501 q 503 531 534 573 l 532 575 q 494 530 422 508 q 350 485 265 485 l 169 489 q 124 489 106 473 q 89 457 73 421 l 49 421 q 90 528 90 631 q 90 656 88 672 l 109 672 q 111 654 111 637 l 111 629 q 178 671 285 671 q 338 671 418 658 q 495 645 520 645 q 586 645 618 666 z"},"S":{"x_min":0,"x_max":615,"ha":615,"o":"m 546 446 q 544 542 471 595 q 397 647 320 647 q 283 647 260 627 q 238 607 238 575 q 238 551 252 535 q 267 520 308 497 q 453 417 499 381 q 546 346 564 307 q 582 267 582 215 q 582 135 540 82 q 497 28 424 4 q 351 -20 292 -20 q 200 -20 120 42 l 32 -27 l 32 249 l 57 249 l 57 246 q 57 178 83 132 q 108 85 163 48 q 217 11 274 11 q 325 11 357 32 q 388 54 388 88 q 388 108 375 125 q 362 143 340 157 q 318 171 239 213 q 55 310 55 445 q 55 542 127 608 q 199 673 306 673 q 342 673 383 664 q 424 655 480 620 l 570 688 l 570 446 z"},"}":{"x_min":0,"x_max":396,"ha":396,"o":"m 333 225 q 290 216 267 191 q 244 166 244 130 q 244 108 248 91 q 264 18 267 1 q 270 -17 270 -36 q 270 -63 255 -94 q 239 -125 213 -149 q 187 -174 157 -185 q 127 -195 63 -200 l 63 -176 q 150 -161 150 -87 q 150 -64 146 -47 l 133 7 q 125 39 125 67 q 125 132 171 178 q 218 224 293 239 l 293 241 q 125 280 125 417 q 125 437 130 461 l 145 525 q 150 547 150 566 q 150 606 128 627 q 107 649 63 656 l 63 679 q 151 679 210 631 q 270 583 270 514 q 270 495 267 478 q 265 460 249 391 q 244 370 244 342 q 244 312 268 287 q 292 262 333 253 z"},"Z":{"x_min":0,"x_max":690,"ha":690,"o":"m 659 655 l 343 23 l 353 23 q 412 23 449 38 q 487 54 531 98 q 575 142 599 188 q 622 233 625 280 l 651 280 l 651 0 l 18 0 l 330 632 q 267 630 232 621 q 198 611 159 580 q 120 548 99 507 q 79 466 76 407 l 50 407 l 50 655 z"},"x":{"x_min":0,"x_max":542,"ha":542,"o":"m 540 0 l 218 0 l 218 20 l 257 20 l 186 142 q 135 90 128 76 q 121 62 121 51 q 121 34 131 28 q 142 21 165 20 l 165 0 l 2 0 l 2 20 q 21 25 50 45 q 79 64 103 89 l 174 164 l 51 386 l 2 386 l 2 406 l 336 406 l 336 386 l 304 386 l 360 289 q 410 339 410 360 q 410 386 361 386 l 361 406 l 540 406 l 540 386 q 507 385 490 378 q 474 372 442 339 l 372 266 l 513 20 l 540 20 z"},")":{"x_min":0,"x_max":354,"ha":354,"o":"m 50 676 q 199 591 269 479 q 339 367 339 251 q 339 127 259 11 q 179 -105 50 -169 l 38 -152 q 65 -139 92 -120 l 92 623 q 76 636 42 658 z"},"&":{"x_min":0,"x_max":885,"ha":885,"o":"m 864 147 q 864 84 849 56 q 834 29 784 7 q 733 -14 667 -14 q 602 -14 562 4 q 521 21 489 59 q 365 -14 231 -14 q 145 -14 86 42 q 28 98 28 181 q 28 345 268 426 q 255 458 255 493 q 255 570 321 618 q 387 667 491 667 q 561 667 602 639 q 642 611 642 564 q 642 500 555 460 l 674 264 q 706 279 716 301 q 725 324 725 361 l 725 370 l 650 370 l 650 393 l 841 393 l 841 370 l 755 370 q 754 308 739 283 q 723 257 688 240 q 768 108 779 94 q 790 79 804 79 q 822 79 830 97 q 837 115 837 156 l 837 163 l 864 163 z m 541 487 q 612 512 612 563 q 612 588 594 606 q 577 623 552 623 q 530 623 516 609 q 502 595 502 573 q 502 545 541 487 z m 476 78 l 279 405 q 223 384 223 348 q 223 322 244 288 q 266 254 301 193 q 337 132 353 107 q 370 82 388 72 q 406 62 426 62 q 450 62 476 78 z"},"_":{"x_min":0,"x_max":500,"ha":500,"o":"m 509 -125 l -9 -125 l -9 -75 l 509 -75 z"},"v":{"x_min":0,"x_max":521,"ha":521,"o":"m 520 386 q 505 382 496 377 q 486 373 479 365 q 471 358 457 337 q 443 315 424 267 l 320 0 l 198 0 l 32 386 l 1 386 l 1 406 l 320 406 l 320 386 l 267 386 l 362 166 q 408 290 411 302 q 413 314 413 326 q 413 383 348 386 l 348 406 l 520 406 z"},"O":{"x_min":0,"x_max":792,"ha":792,"o":"m 395 676 q 565 676 664 582 q 762 488 762 326 q 762 173 666 76 q 569 -20 401 -20 q 233 -20 131 75 q 30 170 30 331 q 30 488 129 582 q 229 676 395 676 z m 450 75 l 450 581 q 450 645 400 645 q 345 645 345 578 l 345 72 q 345 39 358 24 q 370 10 400 10 q 450 10 450 75 z"},"(":{"x_min":0,"x_max":354,"ha":354,"o":"m 316 659 q 289 646 262 627 l 262 -116 q 278 -129 312 -151 l 304 -169 q 155 -84 85 28 q 15 140 15 256 q 15 380 95 496 q 175 612 304 676 z"},"C":{"x_min":0,"x_max":686,"ha":686,"o":"m 655 115 q 598 43 538 11 q 477 -20 387 -20 q 230 -20 130 77 q 30 174 30 328 q 30 486 128 581 q 227 676 385 676 q 487 676 551 623 l 651 675 l 651 404 l 628 404 q 628 475 592 531 q 556 586 507 616 q 458 645 408 645 q 384 645 369 634 q 353 622 349 604 q 345 585 345 547 l 345 115 q 345 59 363 34 q 380 10 422 10 q 539 10 632 131 z"},"W":{"x_min":0,"x_max":1168,"ha":1168,"o":"m 1165 632 q 1094 595 1036 460 l 839 0 l 680 0 l 578 307 l 435 0 l 280 0 l 57 632 l 6 632 l 6 655 l 401 655 l 401 632 l 354 632 l 504 210 l 565 341 l 468 632 l 421 632 l 421 655 l 819 655 l 819 632 l 765 632 l 901 226 q 1004 470 1011 491 q 1018 512 1018 542 q 1018 583 1001 606 q 983 628 934 632 l 934 655 l 1165 655 z"},"A":{"x_min":0,"x_max":771,"ha":771,"o":"m 766 0 l 365 0 l 365 23 l 439 23 l 377 201 l 150 201 q 141 172 141 145 q 141 93 167 58 q 193 23 260 23 l 260 0 l 5 0 l 5 23 q 34 33 63 75 q 93 117 112 171 l 286 655 l 510 655 l 730 23 l 766 23 z m 370 224 l 264 529 l 262 529 l 157 224 z"},"f":{"x_min":0,"x_max":372,"ha":372,"o":"m 70 406 l 70 469 q 70 562 122 616 q 174 670 248 670 q 302 670 337 639 q 373 608 373 561 q 373 523 348 499 q 323 475 284 475 q 245 475 220 498 q 195 520 195 556 q 195 624 262 647 l 262 649 l 251 650 q 216 650 190 619 q 164 587 164 543 q 164 499 187 464 q 209 430 237 418 q 265 406 307 406 l 363 406 l 363 386 l 292 386 l 292 20 l 363 20 l 363 0 l 7 0 l 7 20 l 70 20 l 70 386 l 7 386 l 7 406 z"},"Q":{"x_min":0,"x_max":792,"ha":792,"o":"m 326 -15 q 185 7 107 99 q 30 191 30 331 q 30 488 129 582 q 229 676 395 676 q 565 676 664 582 q 762 488 762 326 q 762 197 692 106 q 622 15 493 -11 q 493 -66 512 -114 q 532 -161 560 -178 q 588 -196 638 -196 q 660 -196 676 -194 l 676 -230 q 637 -234 604 -234 q 462 -234 394 -180 q 326 -126 326 -15 z m 450 75 l 450 581 q 450 645 400 645 q 345 645 345 578 l 345 72 q 345 39 358 24 q 370 10 400 10 q 450 10 450 75 z"},"w":{"x_min":0,"x_max":838,"ha":838,"o":"m 836 386 q 807 377 794 362 q 781 346 771 330 q 761 313 732 241 l 635 0 l 511 0 l 412 234 l 318 0 l 195 0 l 32 386 l 2 386 l 2 406 l 300 406 l 300 386 l 266 386 l 360 164 l 397 265 l 347 386 l 318 386 l 318 406 l 635 406 l 635 386 l 581 386 l 676 164 q 722 285 725 296 q 729 307 729 321 q 729 381 665 386 l 665 406 l 836 406 z"},"-":{"x_min":0,"x_max":354,"ha":354,"o":"m 318 128 l 36 128 l 36 317 l 318 317 z"},"E":{"x_min":0,"x_max":750,"ha":750,"o":"m 686 0 l 33 0 l 33 23 l 108 23 l 108 632 l 33 632 l 33 655 l 665 655 l 665 449 l 643 449 q 640 519 582 575 q 524 632 405 632 l 393 632 l 393 348 l 413 348 q 458 348 493 384 q 528 419 528 502 l 549 502 l 549 176 l 528 176 q 528 247 494 286 q 461 325 413 325 l 393 325 l 393 23 q 498 23 572 82 q 647 140 665 242 l 686 242 z"},"s":{"x_min":0,"x_max":479,"ha":479,"o":"m 415 250 q 404 325 348 360 q 291 394 234 394 q 217 394 207 387 q 197 380 197 369 q 197 357 208 348 q 218 340 240 329 q 333 282 367 262 q 401 243 419 226 q 438 210 448 185 q 458 160 458 132 q 458 66 406 26 q 354 -13 265 -13 q 164 -13 90 34 l 26 -16 l 26 171 l 47 171 q 53 102 108 60 q 163 19 243 19 q 287 19 287 52 q 287 65 278 74 q 269 83 246 90 q 125 131 77 175 q 29 219 29 270 q 29 337 82 381 q 136 425 218 425 q 286 425 361 384 l 436 428 l 436 250 z"},">":{"x_min":0,"x_max":667,"ha":667,"o":"m 608 279 l 59 50 l 59 181 l 442 333 l 59 485 l 59 615 l 608 388 z"},"l":{"x_min":0,"x_max":358,"ha":358,"o":"m 353 0 l 7 0 l 7 20 l 68 20 l 68 635 l 7 635 l 7 655 l 190 655 q 251 655 290 667 l 290 20 l 353 20 z"},"8":{"x_min":0,"x_max":656,"ha":656,"o":"m 441 378 q 630 357 630 203 q 630 98 538 41 q 445 -16 319 -16 q 239 -16 164 8 q 90 33 58 81 q 26 129 26 188 q 26 339 204 374 l 204 376 q 61 413 61 514 q 61 583 123 627 q 184 671 318 671 q 589 671 589 519 q 589 411 441 380 z m 370 445 l 370 597 q 370 623 361 634 q 352 645 329 645 q 305 645 295 632 q 285 620 285 589 l 285 442 q 285 392 326 392 q 351 392 361 404 q 370 415 370 445 z m 370 61 l 370 316 q 370 347 360 359 q 350 371 326 371 q 302 371 294 359 q 285 347 285 316 l 285 67 q 285 36 294 24 q 304 12 329 12 q 351 12 361 23 q 370 34 370 61 z"},"\\":{"x_min":0,"x_max":635,"ha":635,"o":"m 610 -136 l 458 -136 l 25 676 l 177 676 z"},"e":{"x_min":0,"x_max":536,"ha":536,"o":"m 516 205 l 256 205 l 256 118 q 256 77 261 59 q 266 42 280 30 q 294 19 315 19 q 359 19 407 48 q 455 78 492 128 l 508 111 q 414 -13 280 -13 q 169 -13 95 46 q 21 105 21 193 q 21 287 96 350 q 172 413 285 413 q 374 413 438 357 q 502 301 516 205 z m 348 225 l 348 341 q 348 394 304 394 q 256 394 256 341 l 256 225 z"},"b":{"x_min":0,"x_max":629,"ha":629,"o":"m 290 384 q 368 413 423 413 q 503 413 555 353 q 608 293 608 202 q 608 110 551 48 q 494 -13 410 -13 q 342 -13 290 33 l 290 -12 q 250 0 207 0 l 6 0 l 6 20 l 68 20 l 68 635 l 6 635 l 6 655 l 148 655 q 237 655 290 667 z m 377 69 l 377 309 q 377 373 332 373 q 310 373 290 359 l 290 61 q 318 33 345 33 q 377 33 377 69 z"},"%":{"x_min":0,"x_max":854,"ha":854,"o":"m 205 666 q 280 666 332 607 q 384 548 384 461 q 384 370 333 312 q 283 255 203 255 q 127 255 76 313 q 25 372 25 459 q 25 546 77 606 q 129 666 205 666 z m 225 312 l 225 608 q 225 625 220 632 q 216 638 204 638 q 193 638 189 631 q 185 625 185 608 l 185 312 q 185 282 204 282 q 216 282 221 288 q 225 294 225 312 z m 595 655 l 302 0 l 261 0 l 555 655 z m 649 400 q 725 400 776 341 q 828 281 828 194 q 828 102 778 44 q 728 -13 648 -13 q 572 -13 521 45 q 470 104 470 191 q 470 279 522 339 q 574 400 649 400 z m 670 46 l 670 342 q 670 359 666 366 q 661 372 649 372 q 629 372 629 342 l 629 46 q 629 16 649 16 q 661 16 666 22 q 670 29 670 46 z"},"m":{"x_min":0,"x_max":961,"ha":961,"o":"m 954 0 l 639 0 l 639 20 l 673 20 l 673 304 q 673 336 666 346 q 659 356 645 356 q 615 356 590 326 l 590 20 l 624 20 l 624 0 l 337 0 l 337 20 l 369 20 l 369 309 q 369 355 343 355 q 319 355 290 326 l 290 20 l 324 20 l 324 0 l 6 0 l 6 20 l 68 20 l 68 386 l 6 386 l 6 406 l 160 406 q 234 406 290 419 l 290 350 q 371 413 453 413 q 537 413 585 350 q 662 413 742 413 q 800 413 847 384 q 893 355 893 279 l 893 20 l 954 20 z"},"#":{"x_min":0,"x_max":668,"ha":668,"o":"m 632 160 l 486 160 l 447 -21 l 341 -21 l 381 160 l 219 160 l 181 -21 l 75 -21 l 114 160 l 36 160 l 36 265 l 136 265 l 163 400 l 36 400 l 36 505 l 183 505 l 224 688 l 329 688 l 289 505 l 449 505 l 488 688 l 594 688 l 554 505 l 632 505 l 632 400 l 534 400 l 506 265 l 632 265 z m 429 400 l 268 400 l 241 266 l 401 266 z"},",":{"x_min":0,"x_max":313,"ha":313,"o":"m 236 23 q 204 -9 151 -9 q 102 -9 70 16 q 38 41 38 76 q 38 113 71 137 q 104 162 155 162 q 208 162 242 133 q 276 103 276 58 q 276 2 239 -46 q 203 -94 84 -94 l 71 -94 l 71 -71 q 168 -71 201 -44 q 234 -17 238 21 z"},"n":{"x_min":0,"x_max":665,"ha":665,"o":"m 658 0 l 341 0 l 341 20 l 375 20 l 375 306 q 375 357 345 357 q 321 357 290 329 l 290 20 l 324 20 l 324 0 l 6 0 l 6 20 l 68 20 l 68 386 l 6 386 l 6 406 l 192 406 q 238 406 290 419 l 290 353 q 372 413 455 413 q 513 413 555 384 q 597 355 597 283 l 597 20 l 658 20 z"},"h":{"x_min":0,"x_max":665,"ha":665,"o":"m 660 0 l 342 0 l 342 20 l 375 20 l 375 309 q 375 361 343 361 q 319 361 290 338 l 290 20 l 324 20 l 324 0 l 7 0 l 7 20 l 68 20 l 68 635 l 7 635 l 7 655 l 171 655 q 239 655 290 667 l 290 362 q 374 413 457 413 q 525 413 562 377 q 599 341 599 271 l 599 20 l 660 20 z"},"z":{"x_min":0,"x_max":505,"ha":505,"o":"m 486 0 l 9 0 l 225 386 q 74 381 51 229 l 28 229 l 28 406 l 486 406 l 275 20 q 328 21 372 44 q 416 66 437 96 q 459 126 463 175 l 486 175 z"},"B":{"x_min":0,"x_max":840,"ha":840,"o":"m 661 340 q 729 324 764 279 q 800 235 800 170 q 800 90 746 45 q 692 0 575 0 l 25 0 l 25 23 l 108 23 l 108 632 l 25 632 l 25 655 l 581 655 q 656 655 695 638 q 733 622 756 581 q 779 540 779 491 q 779 367 661 342 z m 499 409 l 499 545 q 499 599 487 615 q 474 632 435 632 l 393 632 l 393 341 l 437 341 q 474 341 486 355 q 499 370 499 409 z m 499 83 l 499 257 q 499 297 487 308 q 474 320 433 320 l 393 320 l 393 23 l 437 23 q 474 23 487 34 q 499 45 499 83 z"},"K":{"x_min":0,"x_max":896,"ha":896,"o":"m 890 0 l 492 0 l 492 23 l 559 23 l 395 339 l 393 339 l 393 23 l 468 23 l 468 0 l 30 0 l 30 23 l 108 23 l 108 632 l 30 632 l 30 655 l 474 655 l 474 632 l 393 632 l 393 370 q 578 511 597 528 q 615 544 615 568 q 615 632 520 632 l 511 632 l 511 655 l 858 655 l 858 632 l 846 632 q 798 632 738 596 q 678 560 608 501 l 858 23 l 890 23 z"},"R":{"x_min":0,"x_max":864,"ha":864,"o":"m 832 110 q 810 -12 687 -12 q 634 -12 598 0 q 562 12 539 37 q 516 63 507 101 q 497 139 497 270 q 497 308 483 321 q 469 334 429 334 q 405 334 393 333 l 393 23 l 459 23 l 459 0 l 31 0 l 31 23 l 108 23 l 108 632 l 31 632 l 31 655 l 574 655 q 703 655 741 609 q 779 562 779 500 q 779 443 750 403 q 720 362 666 344 q 734 320 753 290 q 773 259 773 206 l 770 106 q 770 78 782 78 q 789 78 797 89 q 805 100 808 116 z m 498 426 l 498 564 q 498 605 484 619 q 470 632 426 632 l 393 632 l 393 356 l 410 356 q 461 356 480 372 q 498 387 498 426 z"},"T":{"x_min":0,"x_max":729,"ha":729,"o":"m 715 427 l 688 427 q 667 521 625 568 q 583 616 505 632 l 505 23 l 590 23 l 590 0 l 139 0 l 139 23 l 224 23 l 224 632 q 146 616 104 568 q 62 521 41 427 l 15 427 l 15 655 l 715 655 z"},"P":{"x_min":0,"x_max":814,"ha":814,"o":"m 30 655 l 563 655 q 650 655 692 638 q 734 621 759 573 q 784 526 784 469 q 784 407 755 355 q 726 303 668 283 q 611 264 509 264 l 393 264 l 393 23 l 483 23 l 483 0 l 30 0 l 30 23 l 108 23 l 108 632 l 30 632 z m 497 359 l 497 531 q 497 576 491 597 q 484 619 472 625 q 459 632 429 632 l 393 632 l 393 287 l 428 287 q 497 287 497 359 z"},"|":{"x_min":0,"x_max":611,"ha":611,"o":"m 366 -135 l 244 -135 l 244 696 l 366 696 z"},"t":{"x_min":0,"x_max":394,"ha":394,"o":"m 384 144 q 353 50 309 23 q 265 -5 202 -5 q 64 -5 64 102 l 64 386 l 15 386 l 15 406 q 100 414 175 479 q 250 545 264 605 l 286 605 l 286 406 l 351 406 l 351 386 l 286 386 l 286 120 q 286 85 290 76 q 293 67 303 67 q 330 67 358 150 z"},"M":{"x_min":0,"x_max":1038,"ha":1038,"o":"m 1010 0 l 568 0 l 568 23 l 650 23 l 650 562 l 648 562 l 431 0 l 367 0 l 145 561 l 145 214 q 145 166 156 119 q 167 73 189 48 q 211 23 257 23 l 268 23 l 268 0 l 16 0 l 16 23 q 67 23 92 77 q 117 130 117 199 l 117 593 l 94 632 l 32 632 l 32 655 l 402 655 l 535 329 l 661 655 l 1010 655 l 1010 632 l 930 632 l 930 23 l 1010 23 z"},"g":{"x_min":0,"x_max":542,"ha":542,"o":"m 149 138 q 125 126 125 110 q 125 83 194 83 l 231 83 l 289 84 l 337 84 q 520 84 520 -53 q 520 -134 446 -181 q 371 -228 243 -228 q 147 -228 87 -196 q 28 -165 28 -115 q 28 -89 53 -55 q 26 -23 26 13 q 26 92 127 144 q 19 186 19 264 q 19 330 82 371 q 146 413 252 413 q 290 413 324 406 q 338 453 370 481 q 401 509 437 509 q 462 509 479 494 q 495 479 495 455 q 495 432 479 416 q 462 400 438 400 q 414 400 399 414 q 385 428 385 450 q 385 461 388 466 l 386 468 q 354 447 342 403 q 514 364 514 259 q 514 188 440 154 q 367 121 274 121 q 206 121 149 138 z m 308 185 l 308 348 q 308 394 271 394 q 228 394 228 348 l 228 185 q 228 136 269 136 q 308 136 308 185 z m 67 -67 q 58 -82 58 -100 q 58 -146 114 -176 q 170 -206 258 -206 q 325 -206 362 -188 q 399 -170 399 -139 q 399 -118 381 -103 q 363 -89 293 -89 l 166 -94 q 100 -94 67 -67 z"},"j":{"x_min":0,"x_max":362,"ha":362,"o":"m 202 667 q 247 667 272 645 q 298 623 298 584 q 298 542 261 515 q 224 488 167 488 q 123 488 94 511 q 65 534 65 569 q 65 610 104 638 q 144 667 202 667 z m 295 0 q 295 -142 241 -183 q 187 -223 123 -223 q 73 -223 41 -196 q 10 -168 10 -126 q 10 -86 36 -61 q 62 -35 102 -35 q 140 -35 164 -58 q 188 -82 188 -119 q 188 -178 138 -197 l 140 -199 q 221 -190 221 -112 q 221 -67 189 -34 q 158 0 87 0 l 73 0 l 73 386 l 7 386 l 7 406 l 169 406 q 243 406 295 419 z"},"i":{"x_min":0,"x_max":363,"ha":363,"o":"m 202 667 q 243 667 267 647 q 290 626 290 591 q 290 555 250 526 q 209 498 156 498 q 116 498 91 518 q 67 537 67 569 q 67 609 107 638 q 146 667 202 667 z m 360 0 l 7 0 l 7 20 l 73 20 l 73 386 l 7 386 l 7 406 l 172 406 q 234 406 295 419 l 295 20 l 360 20 z"},"y":{"x_min":0,"x_max":521,"ha":521,"o":"m 517 386 q 489 381 470 364 q 452 346 430 303 l 209 -134 q 163 -224 98 -224 q 57 -224 30 -198 q 3 -171 3 -131 q 3 -89 30 -61 q 56 -33 96 -33 q 132 -33 158 -54 q 184 -76 190 -113 l 192 -113 l 252 4 l 33 386 l 7 386 l 7 406 l 332 406 l 332 386 l 290 386 l 373 240 q 403 297 407 311 q 411 325 411 334 q 411 360 396 371 q 381 383 349 386 l 349 406 l 517 406 z"},"@":{"x_min":0,"x_max":927,"ha":927,"o":"m 908 78 q 854 -58 739 -137 q 623 -217 477 -217 q 286 -217 164 -95 q 42 26 42 216 q 42 400 174 538 q 306 676 508 676 q 670 676 770 585 q 869 494 869 346 q 869 202 785 101 q 701 0 581 0 q 471 0 471 81 q 471 101 480 149 l 478 151 q 432 68 393 34 q 354 0 312 0 q 269 0 243 33 q 218 65 218 122 q 218 196 260 279 q 302 362 365 415 q 429 468 485 468 q 549 468 552 392 l 554 392 l 570 451 l 714 460 q 629 175 619 135 q 608 96 608 75 q 608 45 633 45 q 699 45 764 135 q 830 226 830 341 q 830 473 746 554 q 661 635 524 635 q 350 635 231 507 q 113 378 113 189 q 113 19 226 -80 q 338 -179 487 -179 q 610 -179 715 -110 q 821 -40 868 78 z m 399 97 q 434 97 484 206 q 534 314 534 378 q 534 426 502 426 q 458 426 415 303 q 371 180 371 132 q 371 117 379 107 q 387 97 399 97 z"},".":{"x_min":0,"x_max":313,"ha":313,"o":"m 157 163 q 204 163 238 137 q 272 110 272 75 q 272 36 241 11 q 209 -13 160 -13 q 109 -13 75 13 q 41 39 41 77 q 41 113 75 138 q 109 163 157 163 z"},"p":{"x_min":0,"x_max":629,"ha":629,"o":"m 290 370 q 334 393 365 403 q 395 413 427 413 q 504 413 556 354 q 609 295 609 208 q 609 115 556 53 q 503 -9 425 -9 q 371 -9 317 25 q 307 32 301 36 l 290 43 l 290 -203 l 356 -203 l 356 -223 l 6 -223 l 6 -203 l 68 -203 l 68 386 l 6 386 l 6 406 l 167 406 q 216 406 290 419 z m 377 99 l 377 319 q 377 370 346 370 q 318 370 290 347 l 290 68 q 320 43 345 43 q 363 43 370 55 q 377 68 377 99 z"},"X":{"x_min":0,"x_max":813,"ha":813,"o":"m 794 632 q 754 628 712 581 l 546 390 l 740 23 l 790 23 l 790 0 l 344 0 l 344 23 l 422 23 l 295 261 q 209 156 199 132 q 188 109 188 91 q 188 30 258 23 l 258 0 l 8 0 l 8 23 q 42 30 80 57 q 117 84 168 147 l 282 287 l 101 632 l 43 632 l 43 655 l 488 655 l 488 632 l 419 632 l 533 415 q 598 489 607 500 q 616 511 624 532 q 633 553 633 572 q 633 606 616 619 q 599 632 556 632 l 556 655 l 794 655 z"},"*":{"x_min":0,"x_max":375,"ha":375,"o":"m 209 545 q 276 532 283 530 q 291 528 299 520 q 307 511 307 498 q 307 482 297 472 q 286 461 271 461 q 262 461 254 466 q 246 471 201 532 l 199 530 q 226 459 226 453 q 226 437 215 425 q 204 414 188 414 q 174 414 164 423 q 154 433 154 446 q 154 458 158 469 l 181 530 l 179 532 q 134 474 127 467 q 121 461 105 461 q 69 461 69 495 q 69 509 79 519 q 89 528 108 532 l 173 545 l 173 547 l 105 560 q 88 563 79 571 q 70 579 70 593 q 70 608 81 618 q 91 629 107 629 q 117 629 126 624 q 134 619 179 559 l 181 561 q 157 623 156 628 q 154 633 154 643 q 154 657 165 667 q 177 676 194 676 q 208 676 217 667 q 227 657 227 644 q 227 635 225 630 l 199 561 l 201 559 l 241 613 q 247 621 255 625 q 264 629 272 629 q 285 629 296 617 q 306 605 306 590 q 306 578 298 570 q 289 562 272 559 l 209 547 z"},"Y":{"x_min":0,"x_max":778,"ha":778,"o":"m 753 632 q 735 624 714 608 q 692 591 669 560 q 646 529 612 469 l 530 322 l 530 23 l 618 23 l 618 0 l 169 0 l 169 23 l 248 23 l 248 255 l 44 632 l 2 632 l 2 655 l 435 655 l 435 632 l 364 632 l 516 352 q 593 490 604 513 q 614 537 614 560 q 614 576 606 593 q 599 610 584 621 q 569 631 530 632 l 530 655 l 753 655 z"},"c":{"x_min":0,"x_max":474,"ha":474,"o":"m 466 83 q 430 32 385 10 q 339 -13 273 -13 q 158 -13 90 44 q 21 101 21 195 q 21 290 97 351 q 173 413 290 413 q 370 413 414 382 q 459 352 459 298 q 459 264 437 242 q 415 220 380 220 q 345 220 322 241 q 299 262 299 295 q 299 327 319 350 q 339 372 367 372 q 381 372 392 369 l 394 371 q 369 392 311 392 q 280 392 268 379 q 257 367 257 333 l 257 94 q 257 48 269 32 q 280 15 316 15 q 350 15 385 36 q 421 57 448 94 z"},"!":{"x_min":0,"x_max":313,"ha":313,"o":"m 155 667 q 198 667 226 645 q 254 622 254 588 q 254 566 216 391 q 177 215 174 205 q 170 194 157 194 q 146 194 140 205 q 135 212 117 292 l 65 516 q 56 556 56 576 q 56 618 83 643 q 109 667 155 667 z m 157 163 q 204 163 238 137 q 272 110 272 75 q 272 36 241 11 q 209 -13 160 -13 q 109 -13 75 13 q 41 39 41 77 q 41 113 75 138 q 109 163 157 163 z"},"/":{"x_min":0,"x_max":635,"ha":635,"o":"m 610 676 l 177 -136 l 25 -136 l 458 676 z"},"[":{"x_min":0,"x_max":396,"ha":396,"o":"m 372 -190 l 44 -190 l 44 655 l 372 655 l 372 637 l 275 637 l 275 -170 l 372 -170 z"},"6":{"x_min":0,"x_max":656,"ha":656,"o":"m 286 377 q 354 413 420 413 q 507 413 566 355 q 625 297 625 213 q 625 112 544 48 q 464 -16 338 -16 q 205 -16 118 77 q 31 170 31 315 q 31 470 128 570 q 226 671 376 671 q 462 671 511 638 q 559 605 559 547 q 559 506 534 483 q 510 459 468 459 q 424 459 397 485 q 370 512 370 554 q 370 613 428 638 q 404 646 383 646 q 346 646 322 632 q 298 619 292 599 q 286 579 286 546 z m 378 57 l 378 312 q 378 372 338 372 q 321 372 286 354 l 286 59 q 286 12 332 12 q 353 12 365 24 q 378 37 378 57 z"},"r":{"x_min":0,"x_max":521,"ha":521,"o":"m 292 308 q 355 408 421 408 q 458 408 479 386 q 501 363 501 325 q 501 285 475 258 q 450 231 412 231 q 377 231 354 253 q 331 275 331 309 q 331 321 334 327 l 332 329 q 314 312 302 288 q 290 264 290 254 l 290 20 l 355 20 l 355 0 l 6 0 l 6 20 l 68 20 l 68 386 l 6 386 l 6 406 l 169 406 q 242 406 290 419 l 290 308 z"},"2":{"x_min":0,"x_max":656,"ha":656,"o":"m 623 227 q 598 166 553 96 q 508 26 462 8 q 416 -11 381 -11 q 364 -11 314 -3 q 192 17 151 17 q 94 17 53 -19 l 33 -7 q 48 54 87 101 q 126 148 161 173 q 240 229 265 250 q 289 271 310 301 q 331 331 341 372 q 351 413 351 475 q 351 539 339 570 q 326 601 295 620 q 265 639 227 639 q 199 639 166 625 q 133 610 112 590 l 114 588 q 132 594 152 594 q 194 594 220 569 q 246 543 246 501 q 246 457 218 427 q 189 398 146 398 q 104 398 72 429 q 40 459 40 501 q 40 571 110 621 q 180 671 292 671 q 434 671 517 611 q 599 551 599 449 q 599 379 559 335 q 518 292 454 265 q 391 238 328 225 q 285 215 263 208 q 241 202 221 186 l 223 184 q 249 198 285 198 q 309 198 378 192 q 448 186 473 186 q 529 186 554 194 q 580 201 601 240 z"},"{":{"x_min":0,"x_max":396,"ha":396,"o":"m 333 -200 q 246 -200 185 -152 q 125 -104 125 -35 q 125 -16 134 31 q 152 118 152 137 q 152 167 127 192 q 103 217 62 226 l 62 255 q 105 263 129 288 q 152 312 152 349 q 152 364 134 451 q 126 488 126 515 q 126 546 145 581 q 164 615 192 637 q 221 659 248 667 q 274 674 333 679 l 333 656 q 288 647 267 627 q 246 606 246 566 q 246 546 251 523 q 271 438 271 412 q 271 347 223 301 q 176 254 103 240 l 103 238 q 271 199 271 63 q 271 42 266 21 q 250 -48 248 -60 q 246 -72 246 -87 q 246 -128 268 -149 q 291 -170 333 -177 z"},"9":{"x_min":0,"x_max":656,"ha":656,"o":"m 375 273 q 346 259 324 253 q 302 247 264 247 q 163 247 99 302 q 35 358 35 445 q 35 544 113 608 q 191 671 316 671 q 431 671 498 614 q 565 557 593 487 q 621 417 621 339 q 621 229 571 149 q 521 68 431 26 q 341 -16 249 -16 q 153 -16 98 19 q 43 53 43 112 q 43 152 71 178 q 98 205 140 205 q 179 205 205 178 q 231 151 231 111 q 231 50 174 29 q 205 12 255 12 q 295 12 326 25 q 356 39 365 57 q 375 76 375 111 z m 375 301 l 375 579 q 375 645 330 645 q 314 645 299 633 q 284 621 284 573 l 284 344 q 284 279 319 279 q 347 279 375 301 z"}," ":{"x_min":0,"x_max":328,"ha":328,"o":""},"I":{"x_min":0,"x_max":501,"ha":501,"o":"m 472 0 l 32 0 l 32 23 l 108 23 l 108 632 l 32 632 l 32 655 l 472 655 l 472 632 l 393 632 l 393 23 l 472 23 z"},"H":{"x_min":0,"x_max":896,"ha":896,"o":"m 866 0 l 460 0 l 460 23 l 508 23 l 508 330 l 393 330 l 393 23 l 444 23 l 444 0 l 31 0 l 31 23 l 108 23 l 108 632 l 31 632 l 31 655 l 444 655 l 444 632 l 393 632 l 393 352 l 508 352 l 508 632 l 460 632 l 460 655 l 866 655 l 866 632 l 788 632 l 788 23 l 866 23 z"},"4":{"x_min":0,"x_max":656,"ha":656,"o":"m 611 0 l 221 0 l 221 23 l 312 23 l 312 160 l 9 160 l 350 655 l 542 655 l 542 183 l 611 183 l 611 160 l 542 160 l 542 23 l 611 23 z m 312 183 l 312 555 l 310 555 l 58 183 z"},"~":{"x_min":0,"x_max":667,"ha":667,"o":"m 607 428 q 605 336 564 287 q 522 239 460 239 q 425 239 391 249 q 357 259 273 295 q 209 323 174 323 q 108 323 97 239 l 60 239 q 63 337 104 383 q 145 428 206 428 q 240 428 273 418 q 306 409 391 374 q 467 343 488 343 q 560 343 570 428 z"},"D":{"x_min":0,"x_max":861,"ha":861,"o":"m 32 655 l 528 655 q 688 655 759 550 q 831 446 831 333 q 831 213 757 106 q 682 0 550 0 l 32 0 l 32 23 l 108 23 l 108 632 l 32 632 z m 516 116 l 516 539 q 516 597 505 614 q 495 632 443 632 l 393 632 l 393 23 l 433 23 q 481 23 499 41 q 516 59 516 116 z"},"^":{"x_min":0,"x_max":506,"ha":506,"o":"m 472 326 l 387 326 l 253 560 l 119 326 l 38 326 l 239 676 l 271 676 z"},"0":{"x_min":0,"x_max":656,"ha":656,"o":"m 327 671 q 453 671 539 572 q 625 474 625 329 q 625 175 542 80 q 458 -16 325 -16 q 199 -16 115 81 q 30 178 30 324 q 30 470 116 570 q 203 671 327 671 z m 374 72 l 374 583 q 374 617 364 631 q 353 645 328 645 q 303 645 292 630 q 282 615 282 580 l 282 72 q 282 37 292 22 q 301 8 325 8 q 354 8 364 21 q 374 35 374 72 z"},"F":{"x_min":0,"x_max":706,"ha":706,"o":"m 676 452 l 654 452 q 645 500 628 532 q 612 563 581 588 q 551 613 521 623 q 491 632 439 632 l 393 632 l 393 335 q 442 336 470 352 q 498 368 513 401 q 528 433 528 492 l 551 492 l 551 166 l 528 166 q 526 243 498 278 q 470 312 397 312 l 393 312 l 393 23 l 480 23 l 480 0 l 32 0 l 32 23 l 108 23 l 108 632 l 32 632 l 32 655 l 676 655 z"},"`":{"x_min":0,"x_max":333,"ha":333,"o":"m 256 485 l 217 485 l 67 606 l 67 622 l 211 622 z"},"k":{"x_min":0,"x_max":698,"ha":698,"o":"m 697 0 l 386 0 l 386 20 l 424 20 l 295 232 l 290 230 l 290 20 l 356 20 l 356 0 l 7 0 l 7 20 l 68 20 l 68 635 l 7 635 l 7 655 l 178 655 q 235 655 290 667 l 290 247 l 405 329 q 449 360 454 365 q 459 370 459 375 q 459 386 434 386 l 422 386 l 422 406 l 596 406 l 596 386 l 557 386 q 512 386 471 357 l 679 20 l 697 20 z"},"u":{"x_min":0,"x_max":657,"ha":657,"o":"m 644 0 l 366 0 l 366 52 q 285 -13 198 -13 q 145 -13 105 11 q 65 35 65 100 l 65 386 l 13 386 l 13 406 l 177 406 q 226 406 287 419 l 287 107 q 287 73 293 62 q 299 51 313 51 q 339 51 366 79 l 366 386 l 310 386 l 310 406 l 480 406 q 535 406 589 419 l 589 20 l 644 20 z"},"]":{"x_min":0,"x_max":396,"ha":396,"o":"m 352 -190 l 24 -190 l 24 -170 l 121 -170 l 121 637 l 24 637 l 24 655 l 352 655 z"},"U":{"x_min":0,"x_max":763,"ha":763,"o":"m 756 632 q 707 628 680 582 q 653 536 653 456 l 653 167 q 653 83 590 31 q 527 -22 405 -22 q 317 -22 251 -3 q 184 17 154 49 q 123 81 115 110 q 106 139 106 203 l 106 632 l 28 632 l 28 655 l 460 655 l 460 632 l 391 632 l 391 108 q 391 63 398 48 q 404 33 422 25 q 439 17 462 17 q 516 17 571 55 q 627 92 627 176 l 627 428 q 627 528 602 580 q 577 632 507 632 l 507 655 l 756 655 z"},"o":{"x_min":0,"x_max":604,"ha":604,"o":"m 302 413 q 431 413 507 352 q 583 291 583 189 q 583 97 507 42 q 430 -13 301 -13 q 174 -13 98 44 q 21 101 21 193 q 21 292 98 353 q 174 413 302 413 z m 347 69 l 347 333 q 347 368 337 382 q 328 395 302 395 q 276 395 266 380 q 256 365 256 329 l 256 69 q 256 35 265 21 q 275 7 298 7 q 325 7 336 21 q 347 35 347 69 z"},"N":{"x_min":0,"x_max":808,"ha":808,"o":"m 797 632 q 693 624 693 448 l 693 0 l 535 0 l 147 535 l 147 223 q 147 24 269 23 l 269 0 l 16 0 l 16 23 q 73 26 96 77 q 120 127 120 188 l 120 572 l 77 632 l 16 632 l 16 655 l 395 655 l 667 280 l 667 440 q 667 537 640 584 q 612 632 557 632 l 535 632 l 535 655 l 797 655 z"},"+":{"x_min":0,"x_max":667,"ha":667,"o":"m 608 272 l 394 272 l 394 59 l 273 59 l 273 272 l 59 272 l 59 393 l 273 393 l 273 608 l 394 608 l 394 393 l 608 393 z"},"G":{"x_min":0,"x_max":786,"ha":786,"o":"m 749 272 l 703 272 l 703 -31 l 628 45 q 528 -20 396 -20 q 234 -20 132 76 q 30 171 30 322 q 30 426 79 513 q 128 600 210 638 q 291 676 389 676 q 497 676 576 620 l 673 675 l 673 419 l 652 419 q 650 462 639 491 q 628 521 596 559 q 564 598 519 622 q 473 645 425 645 q 378 645 362 625 q 345 606 345 552 l 345 81 q 345 10 395 10 q 452 10 452 91 l 452 272 l 403 272 l 403 294 l 749 294 z"},"q":{"x_min":0,"x_max":629,"ha":629,"o":"m 622 -223 l 275 -223 l 275 -203 l 339 -203 l 339 40 q 271 -13 204 -13 q 126 -13 73 47 q 21 107 21 198 q 21 290 72 351 q 123 413 196 413 q 269 413 339 367 l 339 416 q 404 402 463 402 l 622 402 l 622 382 l 561 382 l 561 -203 l 622 -203 z m 339 65 l 339 343 q 309 367 286 367 q 252 367 252 305 l 252 96 q 252 40 286 40 q 313 40 339 65 z"},"d":{"x_min":0,"x_max":629,"ha":629,"o":"m 623 0 l 438 0 q 382 0 339 -12 l 339 34 q 278 -13 217 -13 q 130 -13 75 48 q 21 108 21 202 q 21 295 72 354 q 124 413 205 413 q 264 413 339 381 l 339 635 l 273 635 l 273 655 l 435 655 q 503 655 561 667 l 561 20 l 623 20 z m 339 61 l 339 359 q 307 373 295 373 q 276 373 264 359 q 252 344 252 320 l 252 77 q 252 56 261 44 q 270 32 283 32 q 307 32 339 61 z"},"1":{"x_min":0,"x_max":656,"ha":656,"o":"m 531 0 l 145 0 l 145 23 l 225 23 l 225 599 l 145 599 l 145 622 l 212 622 q 260 622 322 630 q 383 637 453 675 l 453 23 l 531 23 z"},"5":{"x_min":0,"x_max":656,"ha":656,"o":"m 597 675 q 557 493 358 493 l 203 493 l 195 416 q 261 440 330 440 q 444 440 513 379 q 583 319 583 216 q 583 106 497 45 q 412 -16 267 -16 q 168 -16 114 20 q 59 55 59 118 q 59 161 86 188 q 113 216 155 216 q 195 216 220 189 q 245 163 245 121 q 245 40 152 35 l 152 32 q 188 12 238 12 q 273 12 295 23 q 317 34 324 49 q 331 63 331 93 l 331 345 q 331 410 274 410 q 231 410 164 371 l 195 668 q 277 655 385 655 q 512 655 597 675 z"}}}
